<svg id="Ebene_1" data-name="Ebene 1" xmlns="http://www.w3.org/2000/svg" viewBox="0 0 740.9 498.91"><defs><style>.cls-1{fill:none;}</style></defs><title>berlinjs_logo_black</title><path d="M189.09,290.56l-2.38-7.67c-1.22-3.95-.31-6.78,3.21-7.87a4.48,4.48,0,0,1,5,1.41c-.26-2.75.81-4.78,3.48-5.61,3.38-1,6.09.6,7.4,4.82l2.75,8.89Zm6.62-6.41-1-3.11c-.6-1.93-1.74-2.59-3.26-2.12s-2,1.58-1.44,3.48l1,3.2Zm8.45-2.62-1.36-4.38c-.63-2-1.81-2.6-3.33-2.13-1.69.52-2.29,1.83-1.62,4l1.26,4.07Z"/><path d="M203,265.35l-20.12,3.37-2.48-14.79,3.34-.56,1.82,10.87,4.79-.8-1.49-8.89,3.28-.55,1.49,8.89,5.38-.9-1.82-10.87,3.31-.55Z"/><path d="M179.78,247.06l-.26-9.23A6.32,6.32,0,0,1,186,231a6.2,6.2,0,0,1,6.35,5.2c1.9-1.84,4.4-3.8,4.34-5.81a4.87,4.87,0,0,0-.56-2l3-.54a8.34,8.34,0,0,1,.88,3.42c.12,4.42-6,7.58-7.44,10l0,1.3,7.41-.2.12,4.16Zm9.84-4.44-.11-4a3.2,3.2,0,0,0-3.37-3.42c-2.22.06-3.29,1.55-3.23,3.6l.11,4Z"/><path d="M200.07,225.29l-20.3-2.08.43-4.14,17,1.74,1-9.61,3.34.34Z"/><path d="M182.19,204.64l.8-4.08,20,3.93-.8,4.08Z"/><path d="M191.91,191.05l13.3,4.21L204,199.21,184.51,193l1.08-3.41L202,184.09l-13.32-4.22,1.27-4L209.4,182l-1.11,3.5Z"/><path d="M197.3,170.31a2,2,0,0,1-2.67.57,2.24,2.24,0,0,1-1.3-3.23,2.33,2.33,0,0,1,3.29-1.29,17,17,0,0,1,5.54,4.92L200.44,173Z"/><path d="M210.63,167.54a10.58,10.58,0,0,0,4.12-4.05c.95-1.74,1-3.52-.61-4.41-1.13-.62-2.09-.18-3.47,1.22l-2.42,2.43c-2.12,2.07-4.33,2.56-6.73,1.26-2.9-1.58-4.05-5.29-1.66-9.68a15.67,15.67,0,0,1,4.47-5.12l2.42,2.65a11.37,11.37,0,0,0-3.76,4c-1.2,2.2-.95,3.74.29,4.42,1.08.59,2,.21,3-.81L208.8,157c2.54-2.47,4.78-3.13,7.18-1.83,3.19,1.74,4.21,5.63,1.94,9.8a15,15,0,0,1-4.61,5.08Z"/><path d="M223.91,141.46l5.84,4.51-2.43,3.14-16.15-12.47L220,125.21l2.68,2.07-6.4,8.28,4.94,3.82,5.49-7.1,2.68,2.07Z"/><path d="M223.78,121.16l2.82-3.06,15,13.83L238.77,135Z"/><path d="M239,114.74l9.24,10.44-3.09,2.74-13.52-15.27,2.68-2.37L251.29,114,242,103.48l3.14-2.78L258.69,116l-2.75,2.44Z"/><path d="M262.94,112.85,251.45,96l12.39-8.44,1.91,2.8-9.11,6.21,2.74,4,7.45-5.07,1.88,2.75-7.45,5.07,3.07,4.51,9.11-6.21,1.89,2.78Z"/><path d="M276.7,98a10.57,10.57,0,0,0,5.67-1.12c1.75-.94,2.79-2.37,1.91-4-.61-1.14-1.65-1.29-3.57-.88l-3.35.7c-2.91.57-5-.24-6.32-2.64-1.56-2.91-.49-6.64,3.93-9a15.66,15.66,0,0,1,6.55-1.83l.57,3.54a11.38,11.38,0,0,0-5.35,1.3c-2.21,1.18-2.85,2.61-2.18,3.85.58,1.08,1.57,1.27,3,1l3.45-.65c3.48-.67,5.72,0,7,2.41,1.71,3.2.43,7-3.76,9.25a14.93,14.93,0,0,1-6.64,1.71Z"/><path d="M295.66,75.47l6.48,15.73-3.85,1.59-6.48-15.73-5.59,2.31-1.29-3.14,14.83-6.11L301,73.25Z"/><path d="M317,78.5c.83,2.7,2.15,3.66,4.36,3.09s3-2.08,2.27-5L320.38,64l4.06-1,3.24,12.55c1.15,4.45-.48,8.15-5.55,9.46-4.63,1.2-7.68-.87-8.94-5.1Z"/><path d="M336.15,60.78l4.76-.72,10.18,19.1-4.08.61-2-4L336.72,77l-.79,4.4-4.08.61Zm1.18,13.29,6.24-.94-4.47-8.94Z"/><path d="M349.77,58.81l4.45-.2,6.07,16L365,58.12l4.48-.2L363,78.63l-5.13.23Z"/><path d="M378.48,58.35l4.81.28,6,20.78-4.12-.24L384,74.87l-8.35-.48L374,78.53l-4.12-.24ZM376.9,71.61l6.3.36-2.54-9.67Z"/><path d="M393.09,75.1a10.58,10.58,0,0,0,5.19,2.54c2,.32,3.65-.2,4-2,.21-1.27-.53-2-2.3-2.86l-3.09-1.47C394.18,70,393,68,393.41,65.33c.52-3.26,3.64-5.58,8.58-4.79a15.65,15.65,0,0,1,6.32,2.51l-1.7,3.16a11.35,11.35,0,0,0-5-2.21c-2.47-.4-3.85.35-4.07,1.75-.2,1.21.47,2,1.76,2.56l3.14,1.57c3.17,1.57,4.55,3.47,4.11,6.16-.58,3.58-3.91,5.84-8.59,5.09a14.93,14.93,0,0,1-6.32-2.66Z"/><path d="M425.9,84.55a11.72,11.72,0,0,1-8.22.88c-5.37-1.45-8.33-6.3-6.62-12.64s6.74-9.09,12.11-7.63c4.68,1.27,6.7,4.24,5.55,8.87l-3.79-.31c.7-2.83-.31-4.47-2.85-5.15-3.08-.83-5.74,1.06-6.9,5.34s.3,7.23,3.78,8.17a9.29,9.29,0,0,0,6.17-1Z"/><path d="M436.48,69.51,445,72.94a6.32,6.32,0,0,1,3.71,8.66,6.2,6.2,0,0,1-7.29,3.77c.93,2.48,1.74,5.54,3.61,6.29a4.87,4.87,0,0,0,2,.26l-.72,3a8.32,8.32,0,0,1-3.49-.56c-4.1-1.65-4.58-8.5-6.19-10.79l-1.21-.48L432.75,90l-3.86-1.55Zm.16,10.79,3.68,1.48A3.2,3.2,0,0,0,444.79,80c.83-2.06-.12-3.64-2-4.4l-3.68-1.48Z"/><path d="M457.79,78.68l3.71,1.88-9.23,18.19-3.71-1.88Z"/><path d="M467.88,83.9l7.74,4.8c3.12,1.94,4.63,5.62,2,9.9-2.4,3.88-6.58,4.5-9.7,2.56l-4.2-2.6-3,4.87-3.54-2.19Zm1.77,5-4.19,6.76,3.43,2.13A3.62,3.62,0,0,0,474,96.38c1.39-2.24.74-4.27-.92-5.3Z"/><path d="M490.52,103.51,480,116.9l-3.28-2.57,10.48-13.39-4.76-3.73,2.09-2.67,12.62,9.88-2.09,2.67Z"/><path d="M501,124.45c-2.47,2.28-2.93,4.52-.84,6.79s4.52,1.93,6.9-.26l8.75-8.07L518.6,126l-9,8.26c-3.51,3.23-8.07,3.86-12.15-.56s-3.33-8.61.46-12.1l9-8.26,2.82,3.06Z"/><path d="M510.65,141a10.57,10.57,0,0,0,1.85,5.47c1.15,1.61,2.72,2.46,4.23,1.37,1-.75,1.07-1.8.41-3.65L516,140.93c-.94-2.81-.42-5,1.8-6.61,2.68-1.92,6.52-1.35,9.44,2.72a15.63,15.63,0,0,1,2.66,6.25l-3.44,1a11.36,11.36,0,0,0-2-5.14c-1.46-2-3-2.48-4.1-1.66s-1.06,1.72-.58,3.05l1.1,3.33c1.11,3.36.74,5.67-1.48,7.26-3,2.11-6.9,1.34-9.66-2.52a14.94,14.94,0,0,1-2.56-6.36Z"/><path d="M516.6,158.14l17.89-9.82,7.21,13.15-3,1.63-5.3-9.67-4.26,2.34,4.33,7.9-2.92,1.6-4.33-7.9L521.45,160l5.3,9.67-2.95,1.62Z"/><path d="M544.57,167.68l3.31,8.62a6.32,6.32,0,0,1-3.83,8.61,6.2,6.2,0,0,1-7.72-2.78c-1.18,2.37-2.88,5-2.16,6.93a4.85,4.85,0,0,0,1.19,1.67l-2.69,1.52a8.34,8.34,0,0,1-2-2.94c-1.59-4.13,3.11-9.14,3.7-11.87l-.47-1.21L527,178.88,525.53,175Zm-7.8,7.46,1.42,3.71A3.2,3.2,0,0,0,542.5,181c2.07-.8,2.58-2.56,1.85-4.47l-1.42-3.71Z"/><path d="M550.7,205.36a7.94,7.94,0,0,0,.77-5.41c-.84-3.71-3.83-5.5-8.16-4.52-4.51,1-6.18,4-5.4,7.39a6.7,6.7,0,0,0,1.87,3.51l4.1-.93-1.09-4.82,3.25-.74,2,8.63-9.48,2.15a14.83,14.83,0,0,1-4.15-7.3c-1.23-5.42,1.59-10.63,8-12.08s11.26,2,12.49,7.45a10.7,10.7,0,0,1-.78,7.68Z"/><path d="M557.34,213.81,558,223a6.32,6.32,0,0,1-6.13,7.16,6.2,6.2,0,0,1-6.6-4.87c-1.81,1.93-4.21,4-4.05,6a4.87,4.87,0,0,0,.66,1.94l-3,.69a8.34,8.34,0,0,1-1-3.38c-.34-4.41,5.59-7.87,6.94-10.32l-.1-1.3-7.39.57-.32-4.15Zm-9.61,4.91.3,4a3.2,3.2,0,0,0,3.53,3.25c2.21-.17,3.21-1.71,3.05-3.76l-.3-4Z"/><path d="M558.34,246.15c-.41,5.9-5,9.4-11.18,9s-10.18-4.53-9.76-10.43,5-9.3,11.11-8.87S558.75,240.31,558.34,246.15ZM541,244.93c-.23,3.34,1.82,5.77,6.43,6.09s7-1.79,7.28-5.13-1.83-5.67-6.5-6S541.24,241.69,541,244.93Z"/><path d="M543.73,264c-3.28-.74-5.39.15-6.07,3.17s1,4.82,4.13,5.53l11.62,2.62-.92,4.06-11.88-2.68c-4.65-1.05-7.76-4.45-6.44-10.32s5.2-7.63,10.23-6.49l11.88,2.68-.92,4.06Z"/><path d="M550.11,286.91l-3.24,8.51c-1.31,3.43-4.64,5.61-9.35,3.81-4.26-1.63-5.66-5.61-4.36-9l1.76-4.62-5.35-2,1.48-3.89Zm-4.62,2.69-7.43-2.83-1.44,3.77a3.63,3.63,0,0,0,2.4,4.74c2.47.94,4.34-.08,5-1.91Z"/><path d="M425.73,277.72c-1.58-7.51-2.48-15.28-3.39-23.33a52.45,52.45,0,0,1-.56-10.15c.22-2.37,1.58-2.1,2.3-3.63a12.08,12.08,0,0,0,.31-3.94c-.4-3.9-3-7.35-5-10.76s-3.2-7.55-4.39-11.51c-1.14-3.79-2.5-8-3.64-12.27s-2.65-9-2.57-13.33c.07-3.91,1.69-7.78,2.88-11.51s2.6-7.65,2.88-11.51c.43-6-2.55-10.15-2.12-15.75.62-8,5.13-15.32,4.39-23.17-.22-2.37-1.15-4.17-1.82-7,1-2.17,2.46-3.39,2.27-6.21-.23-3.5-3.83-5.65-7.27-5.76-2.15-.07-3.46,1-5,1.06-1,.05-2.21-1.46-3.33-1.69-3.65-.73-7.4-.75-10.76-2.75h-3c-2.78,2-5.77,2.14-8.18,3.35-2.13,1.07-4,3.28-6.21,3.8-3.19.75-6.48-.49-10.15.08-.87,7.61,3.77,9.58,9.85,11.78,6.5,2.35,14.09,3.4,11.06,12.48a64.36,64.36,0,0,0-12-.43c-2.44.12-3.83-.16-3.79,1.83.06,2.3,3.95,2.21,6.21,2.58,2,.33,6.35.32,5.91,2.73-.19,1-2.45,1.6-3.79,2.27a67.63,67.63,0,0,0-10.6,7.12c-8.18-1.56-15.72-3.19-23.33-5.3-3.24-.9-6.93-1.47-9.09-3.63-4-4-4.08-11.05-7.88-15.45-.43-2.65.52-6.67-2.27-7,.2,1.44.37,4.32-1.21,4.85-1.75-1.08-1.43-4.23-3.94-4.54-.59,1,1.95,3.36.45,4.85-2.71-.08-3.51-4.09-6.51-2.42,1.12,1.41,3.78,2.07,3.48,4.39-1.95.65-3.86-2.56-6.51-1.21,1.48.92,3.85,2.3,2.73,4.85-1.39-.11-4.06-1.22-5.6,0,1,1.15,2.8,1.54,3.94,2.57,1.95,10.55,7.83,18.55,14.84,25,6.84,6.28,16.11,14.09,27.41,15.9a6.48,6.48,0,0,1,.76,3.48c-5.06,2.69-10.06,7-16.06,9.54-2.32,1-5.54,2.52-8.18,1.51-5.34-2-6.17-10.85-13.18-11.66-1.67-2.17-1.77-5.91-5.45-6.06.24,1.1,2.25,2.92,1.06,5-2.26-.33-3-2.93-5.76-2.27.65,1.62,2.86,1.69,2.88,3.94-1.36,1.71-5.73-1.89-7,1.06,1.36.49,5.51.46,5,2.27-.44,1.55-6-.49-6.21,2.12,2.4-.4,4.63.74,4.54,2.73-1.59,1-4.29.86-4.85,2.88,1.35.27,2.74-.23,4.39.3.83.26,1.66,1.24,2.88,2s2.42,1.21,3.18,1.82c3.8,3,7.18,8.82,11.51,11.66,4.12,2.71,12.39,3.77,19.08,3.48,7-.29,13.08-1.79,19.39-3.18,1.68,7.81,6.11,12.88,10.6,17.87-3.42,2.65-7.32,4.45-11.06,6.82-3.55,2.24-7.08,4.49-10,7.88a41.68,41.68,0,0,0-6.51,11.36A45.83,45.83,0,0,0,340,263.48c-.25,3.51.87,7.21.76,11.06-.16,5.34-4.65,2.46-7.42.91-1.72-1-3.47-2.25-5.3-2.73-.85-.22-1.77,0-2.73-.15-3.63-.57-5.78-2.55-9.09-.45,2.05-.15,4.19.7,4.54,2.72-2.22,0-4.87-.79-6.51.3,1.45.77,4.07,1.18,4.09,2.88-1.52,1-5.22-.17-5.45,2.12,1.9.22,4,.25,5,1.36-1.31,1.57-4.91.85-5.61,3,2,.21,4.22.23,5.15,1.51-.74,1.58-3,1.69-3.64,3.33,7.56.47,12.85,2.54,20,4.7,2.43.73,4.79,1.58,7.12,2.27,3.67,1.1,11.37,4.24,14.09.31,1.07-1.56,1.34-4.37,2-6.52.7-2.39,1.38-4.69,2-6.51,1.3-4,2.86-8.55,5.3-11.66,5-6.42,12.12-9.92,18.63-15.3,4.45,7.83,12.18,16.27,17.87,24.08.78,1.07,2.14,2.78,2.27,3.63a8.47,8.47,0,0,1-1.06,4.39c-1.64,1.8-7.75.93-9.39,3.18-3.33.31-6.52.75-7.88,3a4.25,4.25,0,0,1,5.15.31c-1.58,1.25-4.77.89-5.6,2.88,1.2,0,4.15-.55,4.85.76-1,1.61-4.12,1.13-4.24,3.63,1.26,0,3.31-1.31,5.3-.61-1,1.85-3.47,2.18-4.09,4.39,1.31.13,3.1-1.34,5-.61.54,1.88-1.37,2.4-1.51,4.09,5.79-2.07,13.82-2.41,18.93-5.45,5.41-3.22,9.11-9.91,13.59-14.39,2-2,4.81-3.8,4.81-6.82v-.61C426.9,280.85,426.09,279.45,425.73,277.72ZM385.63,115c-.81.31-.59,1.63-1.21,2.12-.73.28-2,.23-2.42-.3.43-1.4.88-2.69,1.82-3.33,2.55-1.74,5.59,1.29,5.6,4.24C387.12,118.47,385.71,117.06,385.63,115Zm21.66-.76c-.52-2.65,3.22-5,5.6-3.33-.25,1.13-1.62,1.23-2.43,1.66C409.45,113.17,408.58,114.21,407.29,114.28Z"/><path d="M384.42,133.07a7,7,0,0,1-.15,2c-4.8-1.68-13.7-1.28-18.63-3.64-1.47-.7-3.49-1.94-3.94-3.33-.57-1.79.43-5.17,2.27-5s.61,2.08,1.21,4.09c.66,2.23,6.23,3.07,9.09,3.48C378.37,131.25,381.71,131.39,384.42,133.07Z"/><path d="M292.21,281.66v16.51h-8.75c-18.89,0-27.24-8.8-27.24-22.93,0-13.58,8.55-27,8.55-41.28,0-8.44-5.17-11.92-17.7-11.92V207.91c12.53,0,17.7-4.22,17.7-13,0-13.94-8.55-27.15-8.55-40.73,0-13.21,8.35-22,27.24-22h8.75v16.51h-4.57c-8.95,0-11.73,5.14-11.73,10.82,0,10.27,8.55,24.95,8.55,38.53,0,9.54-4.57,15-14.32,17.06,9.74,2,14.32,7.52,14.32,17.43,0,13.21-8.55,27.89-8.55,38.16,0,5.87,2.78,11,11.73,11Z"/><path d="M439.17,298.17V281.66h5c8.55,0,11.54-5.14,11.54-11,0-10.27-8.55-25-8.55-38.16,0-9.91,4.38-15.41,14.32-17.43-9.94-2-14.32-7.52-14.32-17.06,0-13.58,8.55-28.25,8.55-38.53,0-5.69-3-10.82-11.54-10.82h-5V132.14h8.95c18.69,0,27,8.81,27,22,0,13.58-8.35,26.79-8.35,40.73,0,8.81,5,13,17.7,13V222c-12.73,0-17.7,3.49-17.7,11.92,0,14.31,8.35,27.7,8.35,41.28,0,14.13-8.35,22.93-27,22.93h-8.95Z"/><circle cx="505.4" cy="216.05" r="10.5"/><circle cx="226.4" cy="216.05" r="10.5"/><path class="cls-1" d="M498.13,419.56c-43.44,3.36-90,6-129.22,6s-85.68-2.63-129.08-6a214,214,0,0,0,258.31,0Z"/><path class="cls-1" d="M369,34.9c-118.2,0-214,95.82-214,214a214,214,0,0,0,9.11,61.93c57.54,5.72,141,12.71,204.84,12.71s147.43-7,205-12.72A214,214,0,0,0,583,248.91C583,130.71,487.17,34.9,369,34.9Z"/><path d="M369,462.92a213.06,213.06,0,0,1-129.14-43.36c-17.54-1.35-34.57-2.83-50.4-4.29a73.6,73.6,0,0,1,7.4,6.33,104.57,104.57,0,0,1,10.13,12.54c4.51,6.21,9.18,12.63,15.39,17.14s13.7,7,21,9.34a105.52,105.52,0,0,1,15.11,5.81,104,104,0,0,1,13.39,8.73c6.23,4.53,12.68,9.22,20.05,11.61,7.2,2.34,15.1,2.34,22.74,2.35a106.37,106.37,0,0,1,16.27.84,102.63,102.63,0,0,1,15.32,4.12c7.35,2.38,14.94,4.85,22.78,4.85s15.43-2.46,22.78-4.85a102.76,102.76,0,0,1,15.32-4.12,106.47,106.47,0,0,1,16.27-.84c7.64,0,15.54,0,22.74-2.35,7.37-2.39,13.82-7.08,20.05-11.61a104,104,0,0,1,13.39-8.73,105.45,105.45,0,0,1,15.11-5.81c7.28-2.38,14.81-4.84,21-9.34s10.88-10.94,15.39-17.14a104.63,104.63,0,0,1,10.13-12.54,73.72,73.72,0,0,1,7.41-6.34c-15.83,1.47-32.86,2.94-50.4,4.3A213.06,213.06,0,0,1,369,462.92Z"/><path d="M166.27,367.1l-8.25-.95-1.18,10.32,8.53,1c3.32.38,5.08-1.63,5.42-4.52C171.13,369.87,170,367.52,166.27,367.1Z"/><path d="M284.69,353.8l-6.48-.2-.35,11.35,6.48.2c3.81.12,5.61-2.47,5.71-5.46S288.5,353.92,284.69,353.8Z"/><path d="M169.77,349.07c.32-2.8-.79-4.87-4.1-5.25l-5-.58-1.09,9.53,4.93.56C168,353.74,169.44,352,169.77,349.07Z"/><path class="cls-1" d="M123.9,336c.68.33,1.36.68,2,1v-.56l-28-28v19.87a51,51,0,0,1,26,7.21Z"/><path class="cls-1" d="M638.4,344.47V309.26l-28,28,.5,49.34v-49A52.61,52.61,0,0,0,638.4,344.47Z"/><path class="cls-1" d="M638.15,347.35v58.52l.69-.76v-95.6l-28,28,0,3A52.62,52.62,0,0,0,638.15,347.35Z"/><path class="cls-1" d="M610.9,343.47c8.72,3.31,23.93,1.82,27.94,1.35V309.51l-28,28,0,3Z"/><path d="M734.39,431.64l-.08,0a240.62,240.62,0,0,0-40.22-50c14.59-19.32,29.17-36,43.76-44.08-32.26-18.3-64.73,5.26-97,6.83V303.55s-12.26,1.5-32.29,3.67q0-1.7,0-3.39a106.48,106.48,0,0,1,.84-16.28,102.8,102.8,0,0,1,4.12-15.32c2.38-7.35,4.85-14.94,4.85-22.78S616,234,613.58,226.68a102.67,102.67,0,0,1-4.12-15.32,106.42,106.42,0,0,1-.84-16.27c0-7.64,0-15.53-2.35-22.74-2.39-7.38-7.08-13.82-11.61-20.06a104.05,104.05,0,0,1-8.73-13.38,105.41,105.41,0,0,1-5.81-15.11c-2.38-7.28-4.84-14.81-9.34-21s-10.94-10.87-17.14-15.39a104.67,104.67,0,0,1-12.53-10.13A104.55,104.55,0,0,1,531,64.77c-4.51-6.21-9.18-12.62-15.39-17.14s-13.7-7-21-9.34a105.41,105.41,0,0,1-15.11-5.8,104,104,0,0,1-13.39-8.73c-6.23-4.53-12.68-9.22-20.05-11.61C438.87,9.81,431,9.8,423.34,9.8A106.38,106.38,0,0,1,407.06,9a102.66,102.66,0,0,1-15.32-4.12C384.4,2.46,376.8,0,369,0s-15.43,2.46-22.77,4.85A102.78,102.78,0,0,1,330.87,9a106.37,106.37,0,0,1-16.27.84c-7.64,0-15.53,0-22.74,2.35-7.37,2.39-13.82,7.08-20.05,11.61a104.19,104.19,0,0,1-13.39,8.73,105.41,105.41,0,0,1-15.11,5.8c-7.28,2.38-14.81,4.84-21,9.34s-10.87,10.94-15.39,17.14a104.64,104.64,0,0,1-10.13,12.54,104.54,104.54,0,0,1-12.54,10.13c-6.21,4.51-12.62,9.18-17.14,15.38s-7,13.71-9.34,21a105.45,105.45,0,0,1-5.8,15.11,104,104,0,0,1-8.73,13.38c-4.53,6.23-9.22,12.68-11.61,20.05-2.34,7.2-2.34,15.1-2.35,22.74a106.39,106.39,0,0,1-.84,16.27,102.7,102.7,0,0,1-4.12,15.32c-2.38,7.35-4.84,14.94-4.84,22.77s2.46,15.43,4.85,22.77a102.72,102.72,0,0,1,4.12,15.32,106.4,106.4,0,0,1,.84,16.27q0,1.7,0,3.41c-20.1-2.18-32.42-3.68-32.42-3.68v24.78c-32.15.11-64.31,25.17-96.46,9l.41.66L0,337.55a228.67,228.67,0,0,0,43.76,54.18C29.17,411.63,14.59,428.87,0,437.55c21.15,12.51,42.3,6.26,63.45,0,21.15-6,42.3-12,63.45,0v0L98.07,405.69l1.62.19L126.95,436V409c16.19,1.77,37.88,4,62.48,6.3,15.83,1.47,32.86,2.94,50.4,4.29,43.4,3.35,89.92,6,129.08,6s85.78-2.64,129.22-6c17.55-1.36,34.58-2.83,50.4-4.3,24.21-2.24,45.6-4.47,61.68-6.22l.28,27.8,26.33-29.15,2.06-1.91.77-.09L611.34,437l-.44.48h0v.09l.05,0c21.8,13,43.78,5.74,65.79-.73,20.38-5.74,40.78-10.83,61.11.7l0,0h0C736.71,435.51,735.54,433.54,734.39,431.64Zm-544.1-54.7c-1.17,10.23-9.37,15.58-22.64,14.06l-31.28-3.58L143.2,328l27.58,3.16c13,1.49,19.5,7.46,18.23,18.57-.65,5.68-3.49,9.52-7.93,11.4C187.77,363.8,191.21,369,190.29,376.94Zm59-24.36-27.89-1.78L221,358l22,1.41-.91,14.23-22-1.41-.51,7.9,27.89,1.78-1,15.19-46.08-2.95,3.82-59.71,46.08,2.95Zm55.39,47.36c-11.92-.37-20.19-13.74-27.32-20.66l-.59,18.91-19.07-.59,1.86-59.81,29.08.9c14.4.45,21.09,9.46,20.74,20.72-.26,8.53-5.51,14.62-13.22,16.84,4.63,4.46,8.52,8.54,12.71,8.67a14.54,14.54,0,0,0,4.51-.74L314.81,398A22.62,22.62,0,0,1,304.73,399.94Zm61.4-.29-44-.32.44-59.84,19.08.14-.32,44.61,24.9.18Zm8.16-.11-.47-59.84,19.08-.15.47,59.84Zm72.55-1.35-21.49-29.65.89,30.26-19,.56-1.76-59.82,16.4-.48,21.49,29.65-.89-30.26,19.17-.56,1.77,59.82Zm37.53-.41c-6.48.36-10.48-2.85-10.82-8.91s3.27-9.79,9.75-10.16,10.58,2.93,10.92,9S490.94,397.41,484.36,397.78Zm38.22-3.11c-14.64,1.29-22.9-6.63-24.11-19.25l18.1-3.19c.66,5.33,2,7.51,5,7.24,2.85-.25,4.38-2.51,3.83-8.64l-3.28-37.08,19-1.68,3.25,36.82C545.62,382.3,539.49,393.17,522.58,394.67ZM368.9,323.55c-63.86,0-147.3-7-204.84-12.71A214,214,0,0,1,155,248.91c0-118.2,95.82-214,214-214s214,95.82,214,214a214,214,0,0,1-9.11,61.92C516.33,316.55,432.81,323.55,368.9,323.55Zm212.25,64.21a52.2,52.2,0,0,1-21-1l1.8-15.63c5.09,2.2,10.38,3.21,14.52,2.54,3.58-.58,5.69-2.44,5.22-5.31-.28-1.74-1.53-2.87-4.81-3.41l-8.15-1.35c-9.35-1.6-14.16-5.63-15.52-14-1.77-10.86,5.55-20.52,20.23-22.91,7.72-1.26,15.82-.8,20.6.65l-2.73,15.25c-4.93-1.78-10.47-2.57-14.8-1.87-3.58.58-5.22,2.37-4.84,4.71.31,1.91,1.54,3,3.82,3.3l8.38,1.58c10.86,2,15.81,6.25,17.07,14C602.77,375.68,595.65,385.4,581.15,387.76Z"/></svg>