<svg xmlns="http://www.w3.org/2000/svg" version="1.1" x="0px" y="0px" width="841.89px" height="595.28px" viewBox="0 0 841.89 595.28" enable-background="new 0 0 841.89 595.28" xml:space="preserve"><path fill="#20A1CF" d="M669.52 297.904c0 13.066-6.984 25.428-8.951 37.941 -2.019 12.846 0.783 26.754-3.146 38.856 -3.999 12.317-14.472 21.916-20.279 33.293 -5.869 11.496-7.521 25.598-15.06 35.957 -7.575 10.409-20.496 16.312-29.578 25.395 -9.082 9.083-14.986 22.003-25.395 29.578 -10.36 7.539-24.462 9.19-35.958 15.06 -11.377 5.808-20.976 16.279-33.292 20.279 -12.104 3.93-26.011 1.127-38.856 3.146 -12.514 1.967-24.876 8.951-37.941 8.951 -13.066 0-25.428-6.984-37.941-8.951 -12.846-2.019-26.753 0.783-38.855-3.146 -12.317-3.999-21.917-14.472-33.293-20.279 -11.496-5.869-25.597-7.521-35.957-15.06 -10.409-7.575-16.313-20.496-25.395-29.578s-22.002-14.986-29.578-25.395c-7.539-10.359-9.19-24.462-15.059-35.957 -5.808-11.377-16.28-20.976-20.279-33.293 -3.93-12.103-1.127-26.01-3.146-38.856 -1.966-12.513-8.951-24.875-8.951-37.94 0-13.066 6.985-25.427 8.951-37.941 2.019-12.846-0.784-26.753 3.146-38.856 3.999-12.317 14.471-21.916 20.279-33.292 5.869-11.496 7.52-25.597 15.059-35.957 7.575-10.409 20.496-16.312 29.578-25.395s14.986-22.002 25.395-29.578c10.359-7.539 24.461-9.19 35.957-15.059 11.376-5.808 20.976-16.28 33.292-20.279 12.104-3.93 26.01-1.127 38.856-3.146 12.513-1.966 24.875-8.951 37.94-8.951 13.066 0 25.428 6.985 37.941 8.951 12.846 2.019 26.754-0.784 38.856 3.146 12.317 4 21.916 14.471 33.293 20.279 11.496 5.869 25.598 7.52 35.957 15.059 10.409 7.575 16.313 20.496 25.396 29.578s22.002 14.986 29.578 25.395c7.539 10.359 9.189 24.46 15.059 35.956 5.809 11.377 16.28 20.976 20.279 33.293 3.93 12.103 1.128 26.01 3.146 38.856C662.535 272.477 669.52 284.838 669.52 297.904z"/><path fill="none" stroke="#223035" stroke-width="2" stroke-miterlimit="10" d="M669.52 297.904c0 13.066-6.984 25.428-8.951 37.941 -2.019 12.846 0.783 26.754-3.146 38.856 -3.999 12.317-14.472 21.916-20.279 33.293 -5.869 11.496-7.521 25.598-15.06 35.957 -7.575 10.409-20.496 16.312-29.578 25.395 -9.082 9.083-14.986 22.003-25.395 29.578 -10.36 7.539-24.462 9.19-35.958 15.06 -11.377 5.808-20.976 16.279-33.292 20.279 -12.104 3.93-26.011 1.127-38.856 3.146 -12.514 1.967-24.876 8.951-37.941 8.951 -13.066 0-25.428-6.984-37.941-8.951 -12.846-2.019-26.753 0.783-38.855-3.146 -12.317-3.999-21.917-14.472-33.293-20.279 -11.496-5.869-25.597-7.521-35.957-15.06 -10.409-7.575-16.313-20.496-25.395-29.578s-22.002-14.986-29.578-25.395c-7.539-10.359-9.19-24.462-15.059-35.957 -5.808-11.377-16.28-20.976-20.279-33.293 -3.93-12.103-1.127-26.01-3.146-38.856 -1.966-12.513-8.951-24.875-8.951-37.94 0-13.066 6.985-25.427 8.951-37.941 2.019-12.846-0.784-26.753 3.146-38.856 3.999-12.317 14.471-21.916 20.279-33.292 5.869-11.496 7.52-25.597 15.059-35.957 7.575-10.409 20.496-16.312 29.578-25.395s14.986-22.002 25.395-29.578c10.359-7.539 24.461-9.19 35.957-15.059 11.376-5.808 20.976-16.28 33.292-20.279 12.104-3.93 26.01-1.127 38.856-3.146 12.513-1.966 24.875-8.951 37.94-8.951 13.066 0 25.428 6.985 37.941 8.951 12.846 2.019 26.754-0.784 38.856 3.146 12.317 4 21.916 14.471 33.293 20.279 11.496 5.869 25.598 7.52 35.957 15.059 10.409 7.575 16.313 20.496 25.396 29.578s22.002 14.986 29.578 25.395c7.539 10.359 9.189 24.46 15.059 35.956 5.809 11.377 16.28 20.976 20.279 33.293 3.93 12.103 1.128 26.01 3.146 38.856C662.535 272.477 669.52 284.838 669.52 297.904z"/><path fill="#223035" d="M639.528 297.361c0 120.654-97.809 218.463-218.466 218.463 -120.653 0-218.462-97.809-218.462-218.463 0-120.654 97.809-218.462 218.462-218.462C541.72 78.899 639.528 176.708 639.528 297.361z"/><path fill="#B6E1F3" d="M241.185 339.011l-2.378-7.674c-1.223-3.945-0.312-6.782 3.213-7.874 2.063-0.639 3.823-0.027 5.021 1.406 -0.255-2.747 0.812-4.78 3.477-5.605 3.381-1.049 6.09 0.598 7.399 4.822l2.754 8.886L241.185 339.011zM247.804 332.601l-0.963-3.106c-0.597-1.926-1.745-2.592-3.264-2.121 -1.576 0.488-2.023 1.58-1.436 3.475l0.991 3.201L247.804 332.601zM256.258 329.98l-1.358-4.38c-0.635-2.05-1.812-2.604-3.331-2.134 -1.69 0.523-2.29 1.832-1.615 4.008l1.261 4.069L256.258 329.98z"/><path fill="#B6E1F3" d="M255.127 313.805l-20.119 3.373 -2.477-14.786 3.344-0.561 1.82 10.873 4.793-0.804 -1.487-8.885 3.284-0.55 1.487 8.885 5.385-0.903 -1.82-10.873 3.313-0.555L255.127 313.805z"/><path fill="#B6E1F3" d="M231.876 295.515l-0.256-9.234c-0.108-3.935 2.454-6.738 6.472-6.849 3.328-0.091 5.731 2.153 6.355 5.195 1.899-1.842 4.396-3.798 4.34-5.814 -0.017-0.585-0.248-1.393-0.564-1.969l3.046-0.54c0.441 0.769 0.842 2.222 0.875 3.425 0.122 4.422-5.972 7.583-7.436 9.967l0.035 1.301 7.406-0.204 0.115 4.162L231.876 295.515zM241.715 291.08l-0.109-3.967c-0.057-2.049-1.326-3.478-3.365-3.422 -2.219 0.061-3.288 1.555-3.231 3.603l0.11 3.967L241.715 291.08z"/><path fill="#B6E1F3" d="M252.169 273.743l-20.296-2.085 0.426-4.141 16.953 1.742 0.988-9.607 3.343 0.343L252.169 273.743z"/><path fill="#B6E1F3" d="M234.289 253.093l0.803-4.084 20.015 3.933 -0.803 4.084L234.289 253.093z"/><path fill="#B6E1F3" d="M244.005 239.504l13.297 4.215 -1.248 3.938 -19.445-6.163 1.081-3.411 16.421-5.543 -13.325-4.224 1.268-4 19.444 6.164 -1.11 3.503L244.005 239.504z"/><path fill="#B6E1F3" d="M249.395 218.765c-0.65 0.886-1.629 1.025-2.672 0.567 -1.456-0.639-1.928-1.805-1.301-3.234s1.912-1.896 3.286-1.293c1.978 0.868 4.518 3.439 5.54 4.918l-1.711 1.735L249.395 218.765z"/><path fill="#B6E1F3" d="M262.721 215.987c1.46-0.797 3.109-2.195 4.121-4.052 0.949-1.742 1.027-3.516-0.605-4.406 -1.133-0.617-2.09-0.176-3.467 1.222l-2.415 2.425c-2.118 2.069-4.335 2.564-6.731 1.258 -2.897-1.58-4.055-5.286-1.658-9.685 1.215-2.228 3.065-4.183 4.466-5.124l2.416 2.651c-1.423 0.855-2.908 2.453-3.764 4.024 -1.199 2.2-0.947 3.745 0.29 4.419 1.08 0.588 2.007 0.205 3.003-0.809l2.524-2.439c2.541-2.468 4.783-3.135 7.18-1.829 3.187 1.737 4.209 5.629 1.937 9.8 -1.308 2.399-3.374 4.311-4.612 5.08L262.721 215.987z"/><path fill="#B6E1F3" d="M276.002 189.907l5.841 4.512 -2.426 3.138 -16.146-12.472 8.828-11.422 2.683 2.072 -6.402 8.284 4.938 3.815 5.488-7.101 2.683 2.072L276.002 189.907z"/><path fill="#B6E1F3" d="M275.875 169.608l2.824-3.059 14.993 13.832 -2.824 3.059L275.875 169.608z"/><path fill="#B6E1F3" d="M291.138 163.19l9.245 10.444 -3.093 2.738 -13.52-15.273 2.679-2.372 16.937 3.675 -9.266-10.467 3.142-2.781 13.521 15.273 -2.752 2.437L291.138 163.19z"/><path fill="#B6E1F3" d="M315.033 161.301l-11.486-16.861 12.395-8.441 1.909 2.802 -9.114 6.208 2.736 4.017 7.447-5.072 1.875 2.752 -7.447 5.072 3.074 4.513 9.114-6.207 1.892 2.777L315.033 161.301z"/><path fill="#B6E1F3" d="M328.796 146.454c1.658 0.135 3.805-0.128 5.669-1.125 1.75-0.936 2.788-2.375 1.911-4.015 -0.608-1.138-1.651-1.295-3.57-0.882l-3.35 0.703c-2.906 0.566-5.031-0.236-6.319-2.644 -1.556-2.91-0.49-6.644 3.928-9.005 2.237-1.196 4.857-1.814 6.545-1.832l0.565 3.542c-1.658-0.066-3.777 0.455-5.354 1.298 -2.209 1.181-2.847 2.61-2.182 3.854 0.58 1.084 1.565 1.272 2.954 0.972l3.45-0.653c3.478-0.669 5.719 0.004 7.006 2.412 1.712 3.201 0.432 7.016-3.757 9.254 -2.41 1.289-5.187 1.752-6.645 1.715L328.796 146.454z"/><path fill="#B6E1F3" d="M347.752 123.917l6.48 15.729 -3.85 1.586 -6.48-15.729 -5.594 2.305 -1.292-3.135 14.827-6.108 1.291 3.135L347.752 123.917z"/><path fill="#B6E1F3" d="M369.101 126.947c0.832 2.699 2.155 3.659 4.359 3.089 2.142-0.553 3.023-2.083 2.272-4.988l-3.258-12.609 4.062-1.049 3.243 12.551c1.148 4.445-0.48 8.151-5.551 9.46 -4.63 1.196-7.683-0.867-8.944-5.097L369.101 126.947z"/><path fill="#B6E1F3" d="M388.242 109.231l4.76-0.716 10.182 19.097 -4.085 0.614 -2.014-3.974 -8.267 1.243 -0.785 4.395 -4.085 0.614L388.242 109.231zM389.423 122.522l6.24-0.938 -4.473-8.944L389.423 122.522z"/><path fill="#B6E1F3" d="M401.865 107.261l4.45-0.201 6.065 16.033 4.753-16.521 4.482-0.202 -6.483 20.712L410 127.314 401.865 107.261z"/><path fill="#B6E1F3" d="M430.573 106.805l4.806 0.275 6.036 20.781 -4.124-0.236 -1.153-4.303 -8.345-0.479 -1.672 4.142 -4.123-0.237L430.573 106.805zM428.996 120.057l6.299 0.361 -2.538-9.672L428.996 120.057z"/><path fill="#B6E1F3" d="M445.182 123.548c1.237 1.111 3.104 2.202 5.19 2.538 1.958 0.315 3.655-0.201 3.951-2.038 0.206-1.273-0.528-2.03-2.305-2.863l-3.09-1.47c-2.654-1.309-3.859-3.235-3.425-5.93 0.525-3.258 3.635-5.583 8.578-4.787 2.505 0.403 4.963 1.499 6.315 2.506l-1.695 3.161c-1.278-1.057-3.279-1.926-5.045-2.21 -2.473-0.398-3.846 0.353-4.069 1.745 -0.196 1.214 0.474 1.96 1.761 2.562l3.14 1.57c3.171 1.574 4.546 3.467 4.111 6.162 -0.578 3.584-3.907 5.843-8.594 5.088 -2.697-0.435-5.187-1.747-6.324-2.66L445.182 123.548z"/><path fill="#B6E1F3" d="M478 133.001c-2.048 1.093-5.21 1.698-8.224 0.882 -5.367-1.454-8.334-6.298-6.616-12.641 1.733-6.4 6.739-9.086 12.106-7.632 4.677 1.266 6.702 4.239 5.549 8.87l-3.79-0.312c0.698-2.826-0.307-4.466-2.849-5.154 -3.076-0.833-5.744 1.056-6.904 5.342 -1.185 4.373 0.299 7.23 3.783 8.174 2.071 0.561 4.527-0.173 6.167-1.003L478 133.001z"/><path fill="#B6E1F3" d="M488.571 117.956l8.572 3.437c3.651 1.464 5.205 4.931 3.711 8.663 -1.238 3.091-4.251 4.404-7.289 3.768 0.935 2.476 1.737 5.544 3.608 6.295 0.544 0.218 1.376 0.325 2.031 0.265l-0.716 3.01c-0.88 0.1-2.372-0.111-3.489-0.559 -4.104-1.646-4.583-8.496-6.188-10.787l-1.207-0.484 -2.756 6.878 -3.863-1.549L488.571 117.956zM488.731 128.75l3.683 1.477c1.901 0.762 3.717 0.165 4.476-1.729 0.825-2.061-0.12-3.635-2.021-4.397l-3.683-1.477L488.731 128.75z"/><path fill="#B6E1F3" d="M509.889 127.127l3.711 1.885 -9.234 18.189 -3.711-1.885L509.889 127.127z"/><path fill="#B6E1F3" d="M519.976 132.351l7.737 4.798c3.122 1.937 4.625 5.622 1.969 9.905 -2.402 3.875-6.576 4.5-9.699 2.563l-4.2-2.604 -3.02 4.87 -3.537-2.193L519.976 132.351zM521.742 137.4l-4.189 6.757 3.427 2.125c1.657 1.028 3.83 0.61 5.11-1.455 1.391-2.244 0.736-4.273-0.922-5.302L521.742 137.4z"/><path fill="#B6E1F3" d="M542.611 151.959l-10.485 13.393 -3.277-2.566 10.485-13.393 -4.762-3.729 2.09-2.669 12.622 9.885 -2.089 2.669L542.611 151.959z"/><path fill="#B6E1F3" d="M553.048 172.899c-2.469 2.278-2.932 4.519-0.836 6.789 2.163 2.342 4.522 1.935 6.904-0.262l8.753-8.075 2.824 3.059 -8.952 8.258c-3.506 3.234-8.07 3.861-12.152-0.559 -3.994-4.325-3.334-8.607 0.459-12.105l8.951-8.258 2.824 3.059L553.048 172.899z"/><path fill="#B6E1F3" d="M562.747 189.416c0.081 1.661 0.62 3.754 1.85 5.473 1.154 1.613 2.716 2.455 4.229 1.373 1.049-0.751 1.069-1.805 0.411-3.653l-1.13-3.229c-0.938-2.807-0.418-5.018 1.802-6.606 2.685-1.92 6.523-1.349 9.438 2.724 1.476 2.062 2.429 4.58 2.664 6.25l-3.438 1.021c-0.149-1.652-0.94-3.685-1.981-5.14 -1.457-2.036-2.956-2.482-4.104-1.662 -1 0.716-1.059 1.717-0.581 3.055l1.096 3.334c1.113 3.361 0.736 5.67-1.484 7.258 -2.952 2.112-6.899 1.338-9.662-2.522 -1.589-2.221-2.408-4.913-2.561-6.363L562.747 189.416z"/><path fill="#B6E1F3" d="M568.697 206.589l17.889-9.816 7.21 13.147 -2.973 1.631 -5.302-9.667 -4.262 2.338 4.332 7.899 -2.92 1.603 -4.332-7.9 -4.788 2.627 5.303 9.667 -2.946 1.617L568.697 206.589z"/><path fill="#B6E1F3" d="M596.667 216.131l3.311 8.624c1.411 3.674-0.073 7.171-3.826 8.613 -3.107 1.194-6.119-0.123-7.719-2.783 -1.179 2.369-2.883 5.045-2.16 6.927 0.21 0.547 0.697 1.23 1.188 1.669l-2.693 1.522c-0.672-0.578-1.532-1.815-1.964-2.939 -1.585-4.129 3.11-9.139 3.699-11.874l-0.467-1.215 -6.916 2.657 -1.492-3.887L596.667 216.131zM588.863 223.589l1.422 3.705c0.735 1.913 2.407 2.838 4.312 2.107 2.072-0.796 2.583-2.561 1.849-4.474l-1.422-3.705L588.863 223.589z"/><path fill="#B6E1F3" d="M602.792 253.811c0.884-1.801 1.19-3.571 0.773-5.411 -0.841-3.711-3.831-5.503-8.162-4.522 -4.507 1.02-6.178 3.966-5.401 7.392 0.33 1.459 0.983 2.712 1.872 3.512l4.097-0.927 -1.092-4.822 3.248-0.735 1.955 8.629 -9.482 2.146c-1.712-1.447-3.506-4.476-4.146-7.299 -1.229-5.424 1.591-10.631 8-12.082 6.469-1.464 11.258 2.021 12.486 7.446 0.676 2.982 0.396 5.413-0.782 7.681L602.792 253.811z"/><path fill="#B6E1F3" d="M609.438 262.26l0.706 9.209c0.301 3.923-2.122 6.85-6.13 7.158 -3.319 0.256-5.829-1.867-6.601-4.873 -1.808 1.933-4.205 4.01-4.051 6.02 0.045 0.583 0.316 1.378 0.66 1.939l-3.016 0.689c-0.479-0.746-0.949-2.178-1.042-3.377 -0.338-4.41 5.595-7.867 6.94-10.319l-0.1-1.297 -7.387 0.569 -0.318-4.15L609.438 262.26zM599.826 267.175l0.304 3.956c0.156 2.043 1.495 3.408 3.528 3.251 2.213-0.17 3.208-1.715 3.051-3.758l-0.303-3.956L599.826 267.175z"/><path fill="#B6E1F3" d="M610.433 294.603c-0.414 5.904-4.988 9.397-11.183 8.96 -6.134-0.432-10.177-4.53-9.763-10.435 0.409-5.839 4.981-9.299 11.115-8.867C606.797 284.697 610.842 288.764 610.433 294.603zM593.107 293.384c-0.234 3.341 1.821 5.769 6.43 6.093 4.668 0.328 7.041-1.787 7.275-5.128 0.227-3.244-1.828-5.671-6.496-5.999C595.708 288.025 593.335 290.14 593.107 293.384z"/><path fill="#B6E1F3" d="M595.826 312.435c-3.278-0.739-5.386 0.151-6.065 3.165 -0.701 3.108 0.973 4.82 4.134 5.533l11.619 2.623 -0.916 4.061 -11.883-2.682c-4.653-1.051-7.761-4.453-6.438-10.322 1.296-5.741 5.197-7.627 10.23-6.491l11.883 2.683 -0.916 4.061L595.826 312.435z"/><path fill="#B6E1F3" d="M602.202 335.357l-3.243 8.506c-1.309 3.434-4.642 5.607-9.351 3.811 -4.261-1.627-5.665-5.607-4.356-9.041l1.761-4.617 -5.354-2.043 1.482-3.889L602.202 335.357zM597.58 338.049l-7.428-2.835 -1.437 3.767c-0.694 1.823 0.128 3.877 2.398 4.743 2.467 0.941 4.335-0.085 5.03-1.908L597.58 338.049z"/><path fill="#B6E1F3" d="M421.064 75.725c-122.407 0-221.638 99.23-221.638 221.638S298.657 519 421.064 519s221.638-99.23 221.638-221.638S543.472 75.725 421.064 75.725zM421.064 511c-117.989 0-213.638-95.648-213.638-213.638 0-117.989 95.648-213.638 213.638-213.638s213.638 95.649 213.638 213.638C634.702 415.352 539.054 511 421.064 511z"/><path fill-rule="evenodd" clip-rule="evenodd" fill="#67C7EE" d="M477.826 326.172c-1.58-7.508-2.475-15.283-3.39-23.328 -0.379-3.344-0.85-7.004-0.559-10.15 0.219-2.373 1.579-2.098 2.296-3.634 0.25-0.536 0.439-2.73 0.314-3.937 -0.402-3.902-2.973-7.349-4.99-10.756 -2.003-3.377-3.205-7.555-4.392-11.51 -1.14-3.792-2.499-7.996-3.635-12.27 -1.096-4.127-2.646-8.993-2.572-13.329 0.066-3.914 1.694-7.777 2.876-11.513 1.178-3.727 2.603-7.653 2.879-11.512 0.434-6.032-2.551-10.153-2.121-15.752 0.617-8.004 5.125-15.324 4.394-23.174 -0.219-2.365-1.146-4.166-1.817-6.968 1.044-2.173 2.459-3.394 2.271-6.21 -0.231-3.502-3.829-5.645-7.27-5.757 -2.151-0.068-3.465 0.979-4.997 1.061 -0.993 0.051-2.215-1.461-3.334-1.688 -3.652-0.731-7.4-0.746-10.756-2.746 -1.009 0-2.018 0-3.028 0 -2.781 2-5.773 2.143-8.18 3.352 -2.126 1.069-4.01 3.279-6.211 3.799 -3.187 0.75-6.479-0.494-10.146 0.08 -0.867 7.614 3.771 9.583 9.845 11.78 6.496 2.35 14.094 3.397 11.058 12.478 -3.553-0.511-7.676-0.631-11.967-0.425 -2.443 0.116-3.835-0.158-3.787 1.832 0.058 2.299 3.945 2.209 6.211 2.583 2.008 0.329 6.354 0.316 5.907 2.729 -0.189 1.023-2.445 1.601-3.787 2.275 -4.013 2.018-7.31 4.616-10.602 7.12 -8.181-1.556-15.722-3.189-23.328-5.303 -3.239-0.898-6.926-1.474-9.088-3.634 -4.01-4.009-4.079-11.054-7.876-15.449 -0.434-2.646 0.515-6.674-2.271-6.968 0.202 1.441 0.369 4.322-1.213 4.847 -1.749-1.079-1.43-4.226-3.938-4.544 -0.59 1.033 1.947 3.361 0.454 4.845 -2.711-0.084-3.514-4.094-6.514-2.421 1.122 1.411 3.781 2.067 3.483 4.393 -1.947 0.649-3.86-2.56-6.512-1.212 1.482 0.918 3.85 2.298 2.725 4.847 -1.395-0.106-4.057-1.218-5.604 0 1.027 1.145 2.799 1.545 3.939 2.575 1.948 10.55 7.832 18.554 14.844 24.993 6.842 6.28 16.114 14.085 27.414 15.905 0.452 0.963 0.863 1.966 0.759 3.483 -5.062 2.686-10.06 6.968-16.056 9.544 -2.32 0.996-5.543 2.517-8.178 1.514 -5.338-2.036-6.171-10.853-13.179-11.664 -1.665-2.172-1.77-5.906-5.453-6.058 0.242 1.101 2.249 2.923 1.06 4.998 -2.26-0.333-3-2.935-5.755-2.273 0.649 1.624 2.857 1.687 2.878 3.938 -1.365 1.708-5.731-1.892-6.968 1.062 1.361 0.489 5.507 0.459 5 2.271 -0.438 1.552-6.03-0.485-6.213 2.121 2.398-0.4 4.629 0.735 4.544 2.727 -1.591 0.981-4.288 0.86-4.847 2.877 1.345 0.272 2.741-0.231 4.394 0.305 0.828 0.265 1.657 1.239 2.879 1.966 1.143 0.687 2.42 1.213 3.179 1.815 3.802 3.032 7.179 8.816 11.514 11.664 4.121 2.712 12.388 3.767 19.083 3.484 6.953-0.291 13.075-1.79 19.389-3.179 1.68 7.813 6.107 12.877 10.603 17.871 -3.422 2.646-7.322 4.454-11.056 6.817 -3.545 2.245-7.08 4.487-9.998 7.879 -2.712 3.149-4.74 7.074-6.514 11.358 -1.699 4.117-3.419 8.901-3.787 13.936 -0.253 3.51 0.871 7.207 0.757 11.059 -0.157 5.339-4.653 2.461-7.421 0.91 -1.718-0.966-3.467-2.252-5.301-2.73 -0.851-0.22-1.765 0-2.727-0.15 -3.626-0.565-5.777-2.547-9.089-0.451 2.055-0.154 4.189 0.697 4.544 2.723 -2.217-0.048-4.867-0.787-6.514 0.305 1.448 0.775 4.068 1.184 4.091 2.877 -1.515 1.012-5.223-0.172-5.454 2.121 1.9 0.221 3.991 0.25 5 1.363 -1.311 1.565-4.911 0.846-5.606 3.028 2.015 0.21 4.219 0.228 5.152 1.514 -0.744 1.581-2.958 1.69-3.636 3.333 7.562 0.467 12.854 2.536 19.993 4.697 2.433 0.734 4.788 1.58 7.12 2.271 3.673 1.095 11.371 4.237 14.087 0.306 1.073-1.559 1.342-4.37 1.97-6.516 0.696-2.393 1.379-4.693 1.967-6.512 1.297-4.002 2.86-8.549 5.303-11.664 5.036-6.42 12.119-9.923 18.631-15.299 4.454 7.831 12.179 16.265 17.873 24.085 0.779 1.069 2.135 2.782 2.273 3.634 0.165 1.044-0.485 3.76-1.062 4.393 -1.636 1.797-7.752 0.93-9.391 3.182 -3.326 0.309-6.518 0.75-7.878 3.028 1.221-1.132 4.168-0.878 5.152 0.306 -1.578 1.249-4.767 0.889-5.604 2.877 1.195-0.033 4.153-0.548 4.848 0.757 -1.016 1.609-4.123 1.128-4.241 3.634 1.261-0.021 3.308-1.312 5.3-0.605 -0.978 1.852-3.473 2.183-4.09 4.395 1.313 0.133 3.098-1.338 4.999-0.605 0.538 1.881-1.374 2.402-1.514 4.09 5.789-2.072 13.824-2.411 18.935-5.453 5.409-3.224 9.113-9.912 13.594-14.392 2.041-2.04 4.809-3.804 4.809-6.817 0-0.197 0-0.403 0-0.605C479 329.299 478.189 327.898 477.826 326.172zM437.726 163.493c-0.806 0.307-0.594 1.628-1.213 2.121 -0.731 0.279-2.047 0.229-2.424-0.303 0.428-1.398 0.882-2.694 1.817-3.333 2.552-1.744 5.593 1.29 5.604 4.243C439.212 166.918 437.801 165.51 437.726 163.493zM459.385 162.734c-0.518-2.655 3.223-5.023 5.604-3.331 -0.246 1.132-1.617 1.227-2.426 1.665C461.55 161.619 460.679 162.662 459.385 162.734z"/><path fill-rule="evenodd" clip-rule="evenodd" fill="#67C7EE" d="M436.513 181.516c0.046 0.753-0.024 1.391-0.151 1.97 -4.801-1.676-13.697-1.282-18.631-3.636 -1.474-0.702-3.495-1.937-3.939-3.331 -0.566-1.786 0.43-5.167 2.272-5 1.882 0.173 0.612 2.077 1.213 4.09 0.663 2.227 6.232 3.065 9.088 3.484C430.469 179.699 433.808 179.842 436.513 181.516z"/><path fill="#67C7EE" d="M344.302 330.108v16.511h-8.75c-18.893 0-27.245-8.805-27.245-22.932 0-13.576 8.551-26.968 8.551-41.277 0-8.439-5.17-11.925-17.699-11.925v-14.126c12.529 0 17.699-4.22 17.699-13.025 0-13.943-8.551-27.152-8.551-40.728 0-13.209 8.353-22.015 27.245-22.015h8.75v16.511h-4.574c-8.949 0-11.733 5.137-11.733 10.824 0 10.273 8.551 24.95 8.551 38.526 0 9.54-4.574 15.043-14.318 17.062 9.745 2.018 14.318 7.521 14.318 17.428 0 13.209-8.551 27.886-8.551 38.159 0 5.87 2.784 11.007 11.733 11.007H344.302z"/><path fill="#67C7EE" d="M491.27 346.619v-16.511h4.971c8.552 0 11.535-5.137 11.535-11.007 0-10.273-8.552-24.95-8.552-38.159 0-9.907 4.376-15.411 14.319-17.428 -9.943-2.018-14.319-7.522-14.319-17.062 0-13.576 8.552-28.252 8.552-38.526 0-5.688-2.983-10.824-11.535-10.824h-4.971v-16.511h8.949c18.693 0 27.045 8.806 27.045 22.015 0 13.576-8.352 26.785-8.352 40.728 0 8.806 4.971 13.025 17.699 13.025v14.126c-12.729 0-17.699 3.486-17.699 11.925 0 14.31 8.352 27.701 8.352 41.277 0 14.127-8.352 22.932-27.045 22.932H491.27z"/><circle fill="#67C7EE" cx="557.5" cy="264.5" r="10.5"/><circle fill="#67C7EE" cx="278.5" cy="264.5" r="10.5"/><path fill="#B6E1F3" d="M52.096 486c42.301 24 84.603-24 126.904 0 0-33.333 0-66.667 0-100 -42.301-24-84.603 24-126.904 0 14.587 24.652 29.173 40.742 43.76 54.176C81.269 460.076 66.683 477.318 52.096 486z"/><path fill="#223035" d="M52.096 386"/><path fill="#223035" d="M52.096 486c42.301 25.026 84.603-25.026 126.904 0 0-1.333 0-2.667 0-4 -41.154-24.348-82.309 22.367-123.463 1.873C54.39 484.635 53.243 485.345 52.096 486z"/><polygon fill="#20A1CF" stroke="#223035" stroke-width="2" stroke-miterlimit="10" points=" 179 484.5 150 452.5 150 355.5 179 384.5 "/><path fill="#223035" d="M49.096 288"/><path fill="#223035" d="M56.096 391.424C96.064 407.828 136.032 364.328 176 388c0-1.333 0-2.667 0-4 -41.154-24.374-82.309 22.47-123.463 1.801C53.723 387.73 54.909 389.604 56.096 391.424z"/><path fill="#B6E1F3" d="M789.952 486C747.65 462 705 510 663 486c0-33.333 0-66.667 0-100 42 24 84.65-24 126.952 0 -14.587 8.101-29.173 24.762-43.76 44.08C760.779 444.095 775.365 460.767 789.952 486z"/><path fill="#223035" d="M790 386"/><path fill="#223035" d="M789.952 485.973C747.65 461.033 705 511.056 663 486c0-1.333 0-2.667 0-4 41 24.352 82.332-22.303 123.486-1.907C787.635 481.995 788.805 483.963 789.952 485.973z"/><polygon fill="#20A1CF" stroke="#223035" stroke-width="2" stroke-miterlimit="10" points=" 664 483.5 692 452.5 692 355.5 663 384.5 "/><path fill="#223035" d="M793 288"/><path fill="#223035" d="M786.952 384.981C746.65 367.504 706 411.891 666 388c0-1.333 0-2.667 0-4 41 24.378 82.332-22.404 123.486-1.835C788.635 383.073 787.805 384.018 786.952 384.981z"/><path fill="#B6E1F3" d="M693 453c0 0-164 20-272 20s-272-20-272-20V353c0 0 164.926 20 272.568 20S693 353 693 353V453z"/><path fill="#223035" d="M149 451v3c0 0 164 20 272 20s272-20 272-20v-3c0 0-164 20-272 20S149 451 149 451z"/><path fill="#223035" d="M149 352v3c0 0 164 20 272 20s272-20 272-20v-3c0 0-164 20-272 20S149 352 149 352z"/><path fill="#223035" d="M195.291 376.408l27.579 3.161c12.984 1.489 19.5 7.462 18.228 18.566 -0.652 5.683-3.492 9.521-7.933 11.403 6.698 2.717 10.137 7.895 9.225 15.851 -1.173 10.229-9.372 15.579-22.64 14.058l-31.275-3.585L195.291 376.408zM208.932 424.921l8.53 0.978c3.317 0.38 5.084-1.632 5.415-4.518 0.351-3.06-0.82-5.408-4.516-5.832l-8.245-0.945L208.932 424.921zM211.648 401.227l4.928 0.564c3.507 0.402 4.959-1.38 5.29-4.266 0.321-2.798-0.786-4.873-4.103-5.254l-5.023-0.575L211.648 401.227z"/><path fill="#223035" d="M252.513 442.605l3.818-59.714 46.077 2.947 -0.972 15.191 -27.894-1.783 -0.46 7.2 21.991 1.406 -0.91 14.227 -21.991-1.406 -0.505 7.903 27.894 1.783 -0.971 15.192L252.513 442.605z"/><path fill="#223035" d="M311.703 386.242l29.082 0.902c14.398 0.447 21.086 9.459 20.736 20.717 -0.265 8.531-5.513 14.618-13.217 16.845 4.634 4.457 8.516 8.539 12.711 8.67 1.144 0.035 3.157-0.254 4.509-0.74l1.386 13.776c-2.327 1.16-6.174 2.098-10.083 1.976 -11.919-0.37-20.189-13.744-27.324-20.656l-0.587 18.91 -19.07-0.593L311.703 386.242zM329.948 413.396l6.484 0.201c3.814 0.118 5.612-2.467 5.705-5.457 0.096-3.078-1.539-5.771-5.353-5.889l-6.484-0.201L329.948 413.396z"/><path fill="#223035" d="M374.249 447.786l0.436-59.838 19.08 0.137 -0.325 44.615 24.899 0.179 -0.111 15.224L374.249 447.786z"/><path fill="#223035" d="M425.917 388.152l19.079-0.149 0.467 59.838 -19.079 0.149L425.917 388.152z"/><path fill="#223035" d="M477.446 416.986l0.893 30.261 -18.976 0.559 -1.764-59.817 16.4-0.482 21.488 29.654 -0.892-30.261 19.165-0.564 1.765 59.817 -16.592 0.488L477.446 416.986z"/><path fill="#223035" d="M535.383 427.166c6.572-0.371 10.58 2.929 10.923 8.991 0.342 6.062-3.274 9.704-9.847 10.074 -6.477 0.365-10.479-2.847-10.821-8.909C525.295 431.261 528.906 427.531 535.383 427.166z"/><path fill="#223035" d="M568.666 420.684c0.663 5.331 2.005 7.509 5.046 7.24 2.851-0.252 4.375-2.508 3.833-8.644l-3.279-37.081 19.007-1.682 3.255 36.818c1.187 13.412-4.939 24.29-21.854 25.787 -14.635 1.295-22.902-6.632-24.113-19.247L568.666 420.684z"/><path fill="#223035" d="M614.009 419.558c5.095 2.2 10.382 3.211 14.524 2.535 3.578-0.583 5.69-2.443 5.224-5.31 -0.283-1.737-1.531-2.871-4.809-3.406l-8.145-1.348c-9.346-1.597-14.158-5.627-15.518-13.965 -1.771-10.856 5.546-20.52 20.233-22.914 7.72-1.259 15.817-0.796 20.596 0.654l-2.733 15.246c-4.93-1.782-10.471-2.572-14.802-1.866 -3.577 0.583-5.22 2.367-4.837 4.712 0.312 1.911 1.545 2.958 3.824 3.3l8.375 1.576c10.857 1.975 15.807 6.25 17.067 13.98 1.854 11.377-5.26 21.097-19.758 23.461 -8.285 1.351-16.778 0.239-21.044-1.027L614.009 419.558z"/></svg>