<svg id="Ebene_1" data-name="Ebene 1" xmlns="http://www.w3.org/2000/svg" viewBox="0 0 745.51 502.01"><defs><style>.cls-1{fill:#fff;}</style></defs><title>berlinjs_logo_white</title><path class="cls-1" d="M191.39,292.12,189,284.44c-1.22-3.94-.31-6.78,3.21-7.87a4.48,4.48,0,0,1,5,1.41c-.26-2.75.81-4.78,3.48-5.61,3.38-1,6.09.6,7.4,4.82l2.75,8.89Zm6.62-6.41-1-3.11c-.6-1.93-1.75-2.59-3.26-2.12s-2,1.58-1.44,3.48l1,3.2Zm8.45-2.62-1.36-4.38c-.64-2-1.81-2.6-3.33-2.13-1.69.52-2.29,1.83-1.61,4l1.26,4.07Z"/><path class="cls-1" d="M205.33,266.91l-20.12,3.37-2.48-14.79,3.34-.56,1.82,10.87,4.79-.8-1.49-8.88,3.28-.55,1.49,8.88,5.38-.9-1.82-10.87,3.31-.56Z"/><path class="cls-1" d="M182.08,248.62l-.26-9.23a6.32,6.32,0,0,1,6.47-6.85,6.2,6.2,0,0,1,6.36,5.19c1.9-1.84,4.4-3.8,4.34-5.81a4.87,4.87,0,0,0-.56-2l3-.54a8.34,8.34,0,0,1,.88,3.42c.12,4.42-6,7.58-7.44,10l0,1.3,7.41-.2.12,4.16Zm9.84-4.44-.11-4a3.2,3.2,0,0,0-3.37-3.42c-2.22.06-3.29,1.56-3.23,3.6l.11,4Z"/><path class="cls-1" d="M202.38,226.85l-20.3-2.08.43-4.14,17,1.74,1-9.61,3.34.34Z"/><path class="cls-1" d="M184.49,206.2l.8-4.08,20,3.93-.8,4.08Z"/><path class="cls-1" d="M194.21,192.61l13.3,4.21-1.25,3.94-19.45-6.16,1.08-3.41,16.42-5.54L191,181.42l1.27-4,19.44,6.16-1.11,3.5Z"/><path class="cls-1" d="M199.6,171.87a2,2,0,0,1-2.67.57,2.24,2.24,0,0,1-1.3-3.23,2.33,2.33,0,0,1,3.29-1.29,17,17,0,0,1,5.54,4.92l-1.71,1.74Z"/><path class="cls-1" d="M212.93,169.09A10.58,10.58,0,0,0,217,165c.95-1.74,1-3.52-.61-4.41-1.13-.62-2.09-.18-3.47,1.22l-2.41,2.43c-2.12,2.07-4.33,2.56-6.73,1.26-2.9-1.58-4.06-5.29-1.66-9.68a15.67,15.67,0,0,1,4.47-5.12l2.42,2.65a11.37,11.37,0,0,0-3.76,4c-1.2,2.2-.95,3.75.29,4.42,1.08.59,2,.2,3-.81l2.52-2.44c2.54-2.47,4.78-3.14,7.18-1.83,3.19,1.74,4.21,5.63,1.94,9.8a15,15,0,0,1-4.61,5.08Z"/><path class="cls-1" d="M226.21,143l5.84,4.51-2.43,3.14-16.15-12.47,8.83-11.42,2.68,2.07-6.4,8.28,4.94,3.81,5.49-7.1,2.68,2.07Z"/><path class="cls-1" d="M226.08,122.71l2.82-3.06,15,13.83-2.82,3.06Z"/><path class="cls-1" d="M241.34,116.29l9.25,10.44-3.09,2.74L234,114.2l2.68-2.37,16.94,3.67L244.32,105l3.14-2.78L261,117.53,258.23,120Z"/><path class="cls-1" d="M265.24,114.4,253.75,97.54l12.39-8.44,1.91,2.8-9.11,6.21,2.74,4,7.45-5.07L271,99.81l-7.45,5.07,3.07,4.51,9.11-6.21,1.89,2.78Z"/><path class="cls-1" d="M279,99.56a10.57,10.57,0,0,0,5.67-1.13c1.75-.94,2.79-2.38,1.91-4-.61-1.14-1.65-1.29-3.57-.88l-3.35.7c-2.91.57-5-.24-6.32-2.64-1.56-2.91-.49-6.64,3.93-9a15.66,15.66,0,0,1,6.54-1.83l.57,3.54A11.38,11.38,0,0,0,279,85.6c-2.21,1.18-2.85,2.61-2.18,3.85.58,1.08,1.57,1.27,3,1l3.45-.65c3.48-.67,5.72,0,7,2.41,1.71,3.2.43,7-3.76,9.25a14.93,14.93,0,0,1-6.64,1.72Z"/><path class="cls-1" d="M298,77l6.48,15.73-3.85,1.59L294.1,78.61l-5.59,2.31-1.29-3.13L302,71.67l1.29,3.13Z"/><path class="cls-1" d="M319.3,80c.83,2.7,2.16,3.66,4.36,3.09s3-2.08,2.27-5l-3.26-12.61,4.06-1L330,77c1.15,4.44-.48,8.15-5.55,9.46-4.63,1.2-7.68-.87-8.94-5.1Z"/><path class="cls-1" d="M338.44,62.33l4.76-.72,10.18,19.1-4.08.61-2-4L339,78.6l-.78,4.4-4.08.61Zm1.18,13.29,6.24-.94-4.47-8.94Z"/><path class="cls-1" d="M352.07,60.36l4.45-.2,6.07,16,4.75-16.52,4.48-.2-6.48,20.71-5.13.23Z"/><path class="cls-1" d="M380.78,59.91l4.81.27,6,20.78-4.12-.24-1.15-4.3L378,75.94l-1.67,4.14-4.12-.24ZM379.2,73.16l6.3.36L383,63.85Z"/><path class="cls-1" d="M395.38,76.65a10.58,10.58,0,0,0,5.19,2.54c2,.31,3.65-.2,4-2,.21-1.27-.53-2-2.31-2.86l-3.09-1.47c-2.65-1.31-3.86-3.23-3.43-5.93.52-3.26,3.63-5.58,8.58-4.79a15.65,15.65,0,0,1,6.32,2.51l-1.69,3.16a11.35,11.35,0,0,0-5-2.21c-2.47-.4-3.85.35-4.07,1.75-.2,1.21.47,2,1.76,2.56l3.14,1.57c3.17,1.57,4.55,3.47,4.11,6.16-.58,3.58-3.91,5.84-8.59,5.09A14.93,14.93,0,0,1,393.88,80Z"/><path class="cls-1" d="M428.2,86.1A11.72,11.72,0,0,1,420,87c-5.37-1.45-8.33-6.3-6.62-12.64s6.74-9.09,12.11-7.63c4.68,1.27,6.7,4.24,5.55,8.87l-3.79-.31c.7-2.83-.31-4.47-2.85-5.15-3.08-.83-5.74,1.06-6.9,5.34s.3,7.23,3.78,8.17a9.29,9.29,0,0,0,6.17-1Z"/><path class="cls-1" d="M438.77,71.06l8.57,3.44a6.32,6.32,0,0,1,3.71,8.66,6.2,6.2,0,0,1-7.29,3.77c.94,2.48,1.74,5.54,3.61,6.29a4.87,4.87,0,0,0,2,.26l-.72,3a8.32,8.32,0,0,1-3.49-.56c-4.1-1.65-4.58-8.5-6.19-10.79l-1.21-.48-2.76,6.88L431.19,90Zm.16,10.79,3.68,1.48a3.2,3.2,0,0,0,4.48-1.73c.82-2.06-.12-3.63-2-4.4l-3.68-1.48Z"/><path class="cls-1" d="M460.09,80.23l3.71,1.88-9.23,18.19-3.71-1.88Z"/><path class="cls-1" d="M470.18,85.45l7.74,4.8c3.12,1.94,4.63,5.62,2,9.9-2.4,3.88-6.58,4.5-9.7,2.56l-4.2-2.6L463,105l-3.54-2.19Zm1.77,5-4.19,6.76,3.43,2.12a3.62,3.62,0,0,0,5.11-1.46c1.39-2.24.74-4.27-.92-5.3Z"/><path class="cls-1" d="M492.81,105.06l-10.48,13.39-3.28-2.57,10.48-13.39-4.76-3.73,2.09-2.67L499.49,106l-2.09,2.67Z"/><path class="cls-1" d="M503.25,126c-2.47,2.28-2.93,4.52-.84,6.79s4.52,1.93,6.9-.26l8.75-8.08,2.82,3.06-9,8.26c-3.51,3.23-8.07,3.86-12.15-.56s-3.33-8.61.46-12.11l9-8.26L512,117.9Z"/><path class="cls-1" d="M513,142.51A10.57,10.57,0,0,0,514.8,148c1.15,1.61,2.72,2.45,4.23,1.37,1-.75,1.07-1.81.41-3.65l-1.13-3.23c-.94-2.81-.42-5,1.8-6.61,2.68-1.92,6.52-1.35,9.44,2.72a15.63,15.63,0,0,1,2.66,6.25l-3.44,1a11.36,11.36,0,0,0-2-5.14c-1.46-2-3-2.48-4.1-1.66s-1.06,1.72-.58,3.06l1.1,3.33c1.11,3.36.74,5.67-1.48,7.26-3,2.11-6.9,1.34-9.66-2.52a14.94,14.94,0,0,1-2.56-6.36Z"/><path class="cls-1" d="M518.9,159.69l17.89-9.82L544,163l-3,1.63-5.3-9.67-4.26,2.34,4.33,7.9-2.92,1.6-4.33-7.9-4.79,2.63,5.3,9.67-2.95,1.62Z"/><path class="cls-1" d="M546.87,169.23l3.31,8.62a6.32,6.32,0,0,1-3.83,8.61,6.2,6.2,0,0,1-7.72-2.78c-1.18,2.37-2.88,5-2.16,6.93a4.85,4.85,0,0,0,1.19,1.67L535,193.8a8.34,8.34,0,0,1-2-2.94c-1.59-4.13,3.11-9.14,3.7-11.87l-.47-1.21-6.92,2.66-1.49-3.89Zm-7.8,7.46,1.42,3.7a3.2,3.2,0,0,0,4.31,2.11c2.07-.8,2.58-2.56,1.85-4.47l-1.42-3.7Z"/><path class="cls-1" d="M553,206.91a7.94,7.94,0,0,0,.77-5.41c-.84-3.71-3.83-5.5-8.16-4.52-4.51,1-6.18,4-5.4,7.39a6.7,6.7,0,0,0,1.87,3.51l4.1-.93-1.09-4.82,3.25-.74,2,8.63-9.48,2.15a14.83,14.83,0,0,1-4.15-7.3c-1.23-5.42,1.59-10.63,8-12.08s11.26,2,12.49,7.45a10.7,10.7,0,0,1-.78,7.68Z"/><path class="cls-1" d="M559.64,215.36l.71,9.21a6.32,6.32,0,0,1-6.13,7.16,6.2,6.2,0,0,1-6.6-4.87c-1.81,1.93-4.2,4-4.05,6a4.87,4.87,0,0,0,.66,1.94l-3,.69a8.34,8.34,0,0,1-1-3.38c-.34-4.41,5.59-7.87,6.94-10.32l-.1-1.3-7.39.57-.32-4.15ZM550,220.27l.3,4a3.2,3.2,0,0,0,3.53,3.25c2.21-.17,3.21-1.72,3.05-3.76l-.3-4Z"/><path class="cls-1" d="M560.64,247.7c-.41,5.9-5,9.4-11.18,9s-10.18-4.53-9.76-10.43,5-9.3,11.11-8.87S561,241.86,560.64,247.7Zm-17.33-1.22c-.23,3.34,1.82,5.77,6.43,6.09s7-1.79,7.27-5.13-1.83-5.67-6.5-6S543.54,243.24,543.31,246.48Z"/><path class="cls-1" d="M546,265.53c-3.28-.74-5.39.15-6.06,3.17s1,4.82,4.13,5.53l11.62,2.62-.92,4.06-11.88-2.68c-4.65-1.05-7.76-4.45-6.44-10.32s5.2-7.63,10.23-6.49l11.88,2.68-.92,4.06Z"/><path class="cls-1" d="M552.41,288.45,549.17,297c-1.31,3.43-4.64,5.61-9.35,3.81-4.26-1.63-5.67-5.61-4.36-9l1.76-4.62-5.35-2,1.48-3.89Zm-4.62,2.69-7.43-2.83-1.44,3.77a3.63,3.63,0,0,0,2.4,4.74c2.47.94,4.34-.09,5-1.91Z"/><path class="cls-1" d="M428,279.27c-1.58-7.51-2.48-15.28-3.39-23.33a52.45,52.45,0,0,1-.56-10.15c.22-2.37,1.58-2.1,2.3-3.63a12.08,12.08,0,0,0,.31-3.94c-.4-3.9-3-7.35-5-10.76s-3.21-7.55-4.39-11.51c-1.14-3.79-2.5-8-3.64-12.27s-2.65-9-2.57-13.33c.07-3.91,1.69-7.78,2.88-11.51s2.6-7.65,2.88-11.51c.43-6-2.55-10.15-2.12-15.75.62-8,5.12-15.32,4.39-23.17-.22-2.37-1.15-4.17-1.82-7,1-2.17,2.46-3.39,2.27-6.21-.23-3.5-3.83-5.64-7.27-5.76-2.15-.07-3.46,1-5,1.06-1,.05-2.22-1.46-3.33-1.69-3.65-.73-7.4-.75-10.76-2.75h-3c-2.78,2-5.77,2.14-8.18,3.35-2.13,1.07-4,3.28-6.21,3.8-3.19.75-6.48-.49-10.15.08-.87,7.61,3.77,9.58,9.85,11.78,6.5,2.35,14.09,3.4,11.06,12.48a64.36,64.36,0,0,0-12-.42c-2.44.12-3.83-.16-3.79,1.83.06,2.3,3.95,2.21,6.21,2.58,2,.33,6.35.32,5.91,2.73-.19,1-2.44,1.6-3.79,2.28a67.63,67.63,0,0,0-10.6,7.12c-8.18-1.56-15.72-3.19-23.33-5.3-3.24-.9-6.93-1.47-9.09-3.63-4-4-4.08-11.05-7.88-15.45-.43-2.65.51-6.67-2.27-7,.2,1.44.37,4.32-1.21,4.85-1.75-1.08-1.43-4.23-3.94-4.54-.59,1,1.95,3.36.45,4.84-2.71-.08-3.51-4.09-6.51-2.42,1.12,1.41,3.78,2.07,3.48,4.39-1.95.65-3.86-2.56-6.51-1.21,1.48.92,3.85,2.3,2.73,4.85-1.39-.11-4.06-1.22-5.6,0,1,1.14,2.8,1.54,3.94,2.57,1.95,10.55,7.83,18.55,14.84,25,6.84,6.28,16.11,14.08,27.41,15.9a6.48,6.48,0,0,1,.76,3.48c-5.06,2.69-10.06,7-16.06,9.54-2.32,1-5.54,2.52-8.18,1.51-5.34-2-6.17-10.85-13.18-11.66-1.67-2.17-1.77-5.91-5.45-6.06.24,1.1,2.25,2.92,1.06,5-2.26-.33-3-2.93-5.76-2.27.65,1.62,2.86,1.69,2.88,3.94-1.36,1.71-5.73-1.89-7,1.06,1.36.49,5.51.46,5,2.27-.44,1.55-6-.48-6.21,2.12,2.4-.4,4.63.73,4.54,2.73-1.59,1-4.29.86-4.85,2.88,1.35.27,2.74-.23,4.39.3.83.26,1.66,1.24,2.88,2s2.42,1.21,3.18,1.81c3.8,3,7.18,8.82,11.51,11.66,4.12,2.71,12.39,3.77,19.08,3.48,7-.29,13.07-1.79,19.39-3.18,1.68,7.81,6.11,12.88,10.6,17.87-3.42,2.65-7.32,4.45-11.06,6.82-3.54,2.25-7.08,4.49-10,7.88a41.68,41.68,0,0,0-6.51,11.36A45.83,45.83,0,0,0,342.34,265c-.25,3.51.87,7.21.76,11.06-.16,5.34-4.65,2.46-7.42.91-1.72-1-3.47-2.25-5.3-2.73-.85-.22-1.77,0-2.73-.15-3.63-.56-5.78-2.55-9.09-.45,2.05-.15,4.19.7,4.54,2.72-2.22,0-4.87-.79-6.51.31,1.45.77,4.07,1.18,4.09,2.88-1.51,1-5.22-.17-5.45,2.12,1.9.22,4,.25,5,1.36-1.31,1.57-4.91.85-5.61,3,2,.21,4.22.23,5.15,1.51-.74,1.58-3,1.69-3.64,3.33,7.56.47,12.85,2.54,20,4.7,2.43.73,4.79,1.58,7.12,2.27,3.67,1.09,11.37,4.24,14.09.31,1.07-1.56,1.34-4.37,2-6.52.7-2.39,1.38-4.69,2-6.51,1.3-4,2.86-8.55,5.3-11.66,5-6.42,12.12-9.92,18.63-15.3,4.45,7.83,12.18,16.26,17.87,24.08.78,1.07,2.14,2.78,2.27,3.63a8.47,8.47,0,0,1-1.06,4.39c-1.64,1.8-7.75.93-9.39,3.18-3.33.31-6.52.75-7.88,3a4.25,4.25,0,0,1,5.15.31c-1.58,1.25-4.77.89-5.6,2.88,1.2,0,4.15-.55,4.85.76-1,1.61-4.12,1.13-4.24,3.63,1.26,0,3.31-1.31,5.3-.61-1,1.85-3.47,2.18-4.09,4.4,1.31.13,3.1-1.34,5-.61.54,1.88-1.37,2.4-1.51,4.09,5.79-2.07,13.82-2.41,18.93-5.45,5.41-3.22,9.11-9.91,13.59-14.39,2-2,4.81-3.8,4.81-6.82v-.61C429.21,282.4,428.4,281,428,279.27Zm-40.1-162.68c-.81.31-.59,1.63-1.21,2.12-.73.28-2,.23-2.42-.3.43-1.4.88-2.69,1.82-3.33,2.55-1.74,5.59,1.29,5.6,4.24C389.42,120,388,118.61,387.93,116.59Zm21.66-.76c-.52-2.65,3.22-5,5.6-3.33-.25,1.13-1.62,1.23-2.43,1.67C411.75,114.72,410.88,115.76,409.59,115.83Z"/><path class="cls-1" d="M386.72,134.62a7,7,0,0,1-.15,2c-4.8-1.68-13.7-1.28-18.63-3.64-1.47-.7-3.5-1.94-3.94-3.33-.57-1.79.43-5.17,2.27-5s.61,2.08,1.21,4.09c.66,2.23,6.23,3.06,9.09,3.48C380.67,132.8,384,132.94,386.72,134.62Z"/><path class="cls-1" d="M294.51,283.21v16.51h-8.75c-18.89,0-27.25-8.8-27.25-22.93,0-13.58,8.55-27,8.55-41.28,0-8.44-5.17-11.92-17.7-11.92V209.46c12.53,0,17.7-4.22,17.7-13,0-13.94-8.55-27.15-8.55-40.73,0-13.21,8.35-22,27.24-22h8.75v16.51h-4.57c-8.95,0-11.73,5.14-11.73,10.82,0,10.27,8.55,24.95,8.55,38.53,0,9.54-4.57,15-14.32,17.06,9.75,2,14.32,7.52,14.32,17.43,0,13.21-8.55,27.89-8.55,38.16,0,5.87,2.78,11,11.73,11Z"/><path class="cls-1" d="M441.48,299.72V283.21h5c8.55,0,11.53-5.14,11.53-11,0-10.27-8.55-24.95-8.55-38.16,0-9.91,4.38-15.41,14.32-17.43-9.94-2-14.32-7.52-14.32-17.06C449.43,186,458,171.3,458,161c0-5.69-3-10.82-11.54-10.82h-5V133.69h8.95c18.69,0,27,8.81,27,22,0,13.58-8.35,26.79-8.35,40.73,0,8.81,5,13,17.7,13v14.13c-12.73,0-17.7,3.49-17.7,11.93,0,14.31,8.35,27.7,8.35,41.28,0,14.13-8.35,22.93-27,22.93h-8.95Z"/><circle class="cls-1" cx="507.71" cy="217.6" r="10.5"/><circle class="cls-1" cx="228.71" cy="217.6" r="10.5"/><path class="cls-1" d="M168.57,368.65l-8.25-.94L159.14,378l8.53,1c3.32.38,5.08-1.63,5.41-4.52C173.44,371.43,172.27,369.08,168.57,368.65Z"/><path class="cls-1" d="M287,355.35l-6.48-.2-.35,11.35,6.48.2c3.81.12,5.61-2.47,5.7-5.46S290.81,355.47,287,355.35Z"/><path class="cls-1" d="M172.08,350.63c.32-2.8-.79-4.87-4.1-5.25l-5-.57-1.09,9.53,4.93.56C170.29,355.3,171.74,353.52,172.08,350.63Z"/><path class="cls-1" d="M740.16,439.07c-1.15-2-2.32-4-3.47-5.88l-.08,0a240.62,240.62,0,0,0-40.22-50c14.59-19.32,29.17-36,43.76-44.08-32.26-18.3-64.73,5.26-97,6.83V305.09s-12.26,1.5-32.29,3.67q0-1.7,0-3.39a106.48,106.48,0,0,1,.84-16.28,102.8,102.8,0,0,1,4.12-15.32c2.38-7.35,4.85-14.94,4.85-22.78s-2.46-15.43-4.85-22.78a102.67,102.67,0,0,1-4.12-15.32,106.42,106.42,0,0,1-.84-16.27c0-7.64,0-15.53-2.35-22.74-2.39-7.38-7.08-13.82-11.61-20.06a104.05,104.05,0,0,1-8.73-13.38,105.41,105.41,0,0,1-5.81-15.11c-2.38-7.28-4.84-14.81-9.34-21S562.16,93.49,556,89a104.67,104.67,0,0,1-12.53-10.13,104.55,104.55,0,0,1-10.13-12.54c-4.51-6.21-9.18-12.62-15.39-17.14s-13.7-7-21-9.34A105.42,105.42,0,0,1,481.81,34a104,104,0,0,1-13.39-8.73c-6.23-4.53-12.68-9.22-20.05-11.61-7.2-2.34-15.1-2.34-22.74-2.35a106.38,106.38,0,0,1-16.27-.84A102.66,102.66,0,0,1,394,6.4C386.69,4,379.1,1.55,371.26,1.55S355.84,4,348.49,6.4a102.79,102.79,0,0,1-15.32,4.12,106.37,106.37,0,0,1-16.27.84c-7.64,0-15.53,0-22.74,2.35-7.37,2.39-13.82,7.08-20.05,11.61A104.19,104.19,0,0,1,260.72,34a105.41,105.41,0,0,1-15.11,5.81c-7.28,2.38-14.81,4.84-21,9.34s-10.87,10.94-15.39,17.14a104.64,104.64,0,0,1-10.13,12.54A104.54,104.54,0,0,1,186.58,89c-6.21,4.51-12.62,9.18-17.14,15.39s-7,13.71-9.34,21a105.45,105.45,0,0,1-5.8,15.11,104,104,0,0,1-8.73,13.38c-4.53,6.23-9.22,12.68-11.61,20.05-2.34,7.2-2.34,15.1-2.35,22.74a106.4,106.4,0,0,1-.84,16.27,102.7,102.7,0,0,1-4.12,15.32c-2.38,7.35-4.84,14.94-4.84,22.77s2.46,15.43,4.85,22.77a102.72,102.72,0,0,1,4.12,15.32,106.4,106.4,0,0,1,.84,16.27q0,1.7,0,3.41c-20.1-2.18-32.42-3.68-32.42-3.68v24.78c-32.15.11-64.31,25.17-96.46,9l.41.66-.85-.46a228.67,228.67,0,0,0,43.76,54.17c-14.59,19.9-29.17,37.14-43.76,45.83,21.15,12.51,42.3,6.26,63.45,0,21.15-6,42.3-12,63.45,0v0l-28.84-31.82,1.62.19,27.26,30.08v-27c16.19,1.77,37.88,4,62.48,6.3a73.6,73.6,0,0,1,7.4,6.33,104.57,104.57,0,0,1,10.13,12.54c4.51,6.21,9.18,12.62,15.39,17.14s13.7,7,21,9.34A105.52,105.52,0,0,1,260.73,468a104,104,0,0,1,13.39,8.73c6.23,4.53,12.68,9.22,20.05,11.61,7.2,2.34,15.1,2.34,22.74,2.35a106.37,106.37,0,0,1,16.27.84,102.63,102.63,0,0,1,15.32,4.12c7.35,2.38,14.94,4.85,22.78,4.85s15.43-2.46,22.78-4.85a102.76,102.76,0,0,1,15.32-4.12,106.48,106.48,0,0,1,16.27-.84c7.64,0,15.54,0,22.74-2.35,7.37-2.39,13.82-7.08,20.05-11.61A104,104,0,0,1,481.82,468a105.45,105.45,0,0,1,15.11-5.81c7.28-2.38,14.81-4.84,21-9.34s10.88-10.94,15.39-17.14a104.62,104.62,0,0,1,10.13-12.54,73.72,73.72,0,0,1,7.41-6.34c24.21-2.24,45.6-4.47,61.68-6.22l.28,27.8,26.33-29.15,2.06-1.91.77-.09-28.31,31.35-.44.48h0v.09l.05,0c21.8,13,43.78,5.74,65.79-.73,20.38-5.74,40.78-10.83,61.11.7l0,0ZM192.6,378.49c-1.17,10.23-9.37,15.58-22.64,14.06L138.69,389l6.81-59.45,27.58,3.16c13,1.49,19.5,7.46,18.23,18.57-.65,5.68-3.49,9.52-7.93,11.4C190.07,365.36,193.51,370.54,192.6,378.49Zm10.12,17.22L206.54,336l46.08,2.95-1,15.19-27.89-1.78-.46,7.2,22,1.41-.91,14.23-22-1.41-.5,7.9,27.89,1.78-1,15.19Zm168.55,68.77a213.06,213.06,0,0,1-129.15-43.35c43.4,3.35,89.92,6,129.08,6s85.78-2.64,129.22-6A213.06,213.06,0,0,1,371.27,464.48Zm-60-78a14.54,14.54,0,0,0,4.51-.74l1.39,13.78a22.62,22.62,0,0,1-10.08,2c-11.92-.37-20.19-13.74-27.32-20.66l-.59,18.91-19.07-.59,1.86-59.81,29.08.9c14.4.45,21.09,9.46,20.74,20.72-.26,8.53-5.51,14.62-13.22,16.85C303.15,382.27,307,386.35,311.23,386.48Zm57.32-.5-.11,15.22-44-.32.43-59.84,19.08.14-.32,44.61Zm7.58-44.73,19.08-.15.47,59.84-19.08.15ZM444.8,340l19.17-.56,1.77,59.82-16.59.49-21.49-29.65.89,30.26-19,.56-1.77-59.82,16.4-.48,21.49,29.65Zm40.79,40.27c6.57-.37,10.58,2.93,10.92,9s-3.27,9.7-9.85,10.07-10.48-2.85-10.82-8.91S479.12,380.63,485.59,380.26Zm39.29,16c-14.64,1.3-22.9-6.63-24.11-19.25l18.1-3.19c.66,5.33,2,7.51,5,7.24,2.85-.25,4.37-2.51,3.83-8.64l-3.28-37.08,19-1.68,3.26,36.82C547.93,383.84,541.8,394.72,524.88,396.22ZM371.21,325.1c-63.86,0-147.3-7-204.84-12.7a214,214,0,0,1-9.11-61.93c0-118.2,95.81-214,214-214s214,95.81,214,214a214,214,0,0,1-9.11,61.92C518.64,318.09,435.12,325.1,371.21,325.1Zm212.25,64.21a52.2,52.2,0,0,1-21-1l1.8-15.63c5.09,2.2,10.38,3.21,14.52,2.53,3.58-.58,5.69-2.44,5.22-5.31-.28-1.74-1.53-2.87-4.81-3.41L571,365.13c-9.35-1.6-14.16-5.63-15.52-14-1.77-10.86,5.55-20.52,20.23-22.91,7.72-1.26,15.82-.8,20.6.65l-2.73,15.25c-4.93-1.78-10.47-2.57-14.8-1.87-3.58.58-5.22,2.37-4.84,4.71.31,1.91,1.54,3,3.82,3.3l8.38,1.58c10.86,2,15.81,6.25,17.07,14C605.07,377.22,598,386.94,583.46,389.31Z"/></svg>